<svg xmlns="http://www.w3.org/2000/svg" viewBox="0 0 800 800" preserveAspectRatio="xMidYMid slice" role="img" aria-label="Crostini con mortadella e stracciatella">
  <defs>
    <radialGradient id="luce" cx="34%" cy="24%" r="78%">
      <stop offset="0%" stop-color="#fffaf2" stop-opacity="0.95"/>
      <stop offset="100%" stop-color="#fffaf2" stop-opacity="0"/>
    </radialGradient>
    <radialGradient id="ombra" cx="50%" cy="50%" r="50%">
      <stop offset="60%" stop-color="#6b4526" stop-opacity="0.3"/>
      <stop offset="100%" stop-color="#6b4526" stop-opacity="0"/>
    </radialGradient>
  </defs>
  <rect width="800" height="800" fill="#efe3cd"/>
  <rect width="800" height="800" fill="url(#luce)"/>
  <ellipse cx="400" cy="456" rx="330" ry="255" fill="url(#ombra)"/>
  <ellipse cx="400" cy="430" rx="320" ry="248" fill="#fffdf8"/>
  <ellipse cx="400" cy="430" rx="320" ry="248" fill="none" stroke="#e0d6c4" stroke-width="3"/>
  <ellipse cx="400" cy="434" rx="243" ry="186" fill="#f7f2e8"/>
  <ellipse cx="400" cy="434" rx="243" ry="186" fill="none" stroke="#e6dccb" stroke-width="2"/>
  
  <g>
    <g transform="rotate(-8 330 400)">
      <rect x="216" y="330" width="230" height="130" rx="26" fill="#c89a52"/>
      <rect x="226" y="340" width="210" height="108" rx="22" fill="#e2bb78"/>
      <ellipse cx="330" cy="372" rx="88" ry="34" fill="#fffaf2"/>
      <path d="M262 366c40-26 96-24 134 4-22 26-64 36-102 24-16-6-26-16-32-28Z" fill="#f3a7bb"/>
      <g fill="#7d9f3c"><circle cx="300" cy="356" r="8"/><circle cx="346" cy="372" r="7"/><circle cx="376" cy="352" r="6"/></g>
    </g>
    <g transform="rotate(9 500 470)">
      <rect x="386" y="400" width="230" height="130" rx="26" fill="#c89a52"/>
      <rect x="396" y="410" width="210" height="108" rx="22" fill="#e2bb78"/>
      <ellipse cx="500" cy="444" rx="88" ry="34" fill="#fffaf2"/>
      <path d="M432 438c40-26 96-24 134 4-22 26-64 36-102 24-16-6-26-16-32-28Z" fill="#f3a7bb"/>
      <g fill="#7d9f3c"><circle cx="470" cy="428" r="8"/><circle cx="516" cy="444" r="7"/><circle cx="546" cy="424" r="6"/></g>
    </g>
    <g fill="#5f8f45" opacity="0.9">
      <path d="M214 486c-30-8-50-30-52-58 30 2 54 24 58 54Z"/>
      <path d="M604 356c28-14 56-10 76 8-22 22-56 26-80 10Z"/>
    </g>
  </g>
</svg>
