<svg xmlns="http://www.w3.org/2000/svg" viewBox="0 0 800 800" preserveAspectRatio="xMidYMid slice" role="img" aria-label="Gnocchi al pomodoro e basilico">
  <defs>
    <radialGradient id="luce" cx="34%" cy="24%" r="78%">
      <stop offset="0%" stop-color="#fffaf2" stop-opacity="0.95"/>
      <stop offset="100%" stop-color="#fffaf2" stop-opacity="0"/>
    </radialGradient>
    <radialGradient id="ombra" cx="50%" cy="50%" r="50%">
      <stop offset="60%" stop-color="#6b4526" stop-opacity="0.3"/>
      <stop offset="100%" stop-color="#6b4526" stop-opacity="0"/>
    </radialGradient>
  </defs>
  <rect width="800" height="800" fill="#efe3cd"/>
  <rect width="800" height="800" fill="url(#luce)"/>
  <ellipse cx="400" cy="456" rx="330" ry="255" fill="url(#ombra)"/>
  <ellipse cx="400" cy="430" rx="320" ry="248" fill="#fffdf8"/>
  <ellipse cx="400" cy="430" rx="320" ry="248" fill="none" stroke="#e0d6c4" stroke-width="3"/>
  <ellipse cx="400" cy="434" rx="243" ry="186" fill="#f7f2e8"/>
  <ellipse cx="400" cy="434" rx="243" ry="186" fill="none" stroke="#e6dccb" stroke-width="2"/>
  <ellipse cx="456" cy="389" rx="34" ry="26" fill="#f7eccd" stroke="#d9c193" stroke-width="3"/><path d="M440 393q16 10 32 0" fill="none" stroke="#d9c193" stroke-width="3" opacity="0.6"/>
  <ellipse cx="420" cy="397" rx="34" ry="26" fill="#f7eccd" stroke="#d9c193" stroke-width="3"/><path d="M404 401q16 10 32 0" fill="none" stroke="#d9c193" stroke-width="3" opacity="0.6"/>
  <ellipse cx="382" cy="399" rx="34" ry="26" fill="#f7eccd" stroke="#d9c193" stroke-width="3"/><path d="M366 403q16 10 32 0" fill="none" stroke="#d9c193" stroke-width="3" opacity="0.6"/>
  <ellipse cx="470" cy="399" rx="34" ry="26" fill="#f7eccd" stroke="#d9c193" stroke-width="3"/><path d="M454 403q16 10 32 0" fill="none" stroke="#d9c193" stroke-width="3" opacity="0.6"/>
  <ellipse cx="267" cy="401" rx="34" ry="26" fill="#f7eccd" stroke="#d9c193" stroke-width="3"/><path d="M251 405q16 10 32 0" fill="none" stroke="#d9c193" stroke-width="3" opacity="0.6"/>
  <ellipse cx="441" cy="403" rx="34" ry="26" fill="#f7eccd" stroke="#d9c193" stroke-width="3"/><path d="M425 407q16 10 32 0" fill="none" stroke="#d9c193" stroke-width="3" opacity="0.6"/>
  <ellipse cx="430" cy="404" rx="34" ry="26" fill="#f7eccd" stroke="#d9c193" stroke-width="3"/><path d="M414 408q16 10 32 0" fill="none" stroke="#d9c193" stroke-width="3" opacity="0.6"/>
  <ellipse cx="472" cy="404" rx="34" ry="26" fill="#f7eccd" stroke="#d9c193" stroke-width="3"/><path d="M456 408q16 10 32 0" fill="none" stroke="#d9c193" stroke-width="3" opacity="0.6"/>
  <ellipse cx="282" cy="405" rx="34" ry="26" fill="#f7eccd" stroke="#d9c193" stroke-width="3"/><path d="M266 409q16 10 32 0" fill="none" stroke="#d9c193" stroke-width="3" opacity="0.6"/>
  <ellipse cx="391" cy="414" rx="34" ry="26" fill="#f7eccd" stroke="#d9c193" stroke-width="3"/><path d="M375 418q16 10 32 0" fill="none" stroke="#d9c193" stroke-width="3" opacity="0.6"/>
  <ellipse cx="421" cy="415" rx="34" ry="26" fill="#f7eccd" stroke="#d9c193" stroke-width="3"/><path d="M405 419q16 10 32 0" fill="none" stroke="#d9c193" stroke-width="3" opacity="0.6"/>
  <ellipse cx="453" cy="415" rx="34" ry="26" fill="#f7eccd" stroke="#d9c193" stroke-width="3"/><path d="M437 419q16 10 32 0" fill="none" stroke="#d9c193" stroke-width="3" opacity="0.6"/>
  <ellipse cx="353" cy="415" rx="34" ry="26" fill="#f7eccd" stroke="#d9c193" stroke-width="3"/><path d="M337 419q16 10 32 0" fill="none" stroke="#d9c193" stroke-width="3" opacity="0.6"/>
  <ellipse cx="318" cy="429" rx="34" ry="26" fill="#f7eccd" stroke="#d9c193" stroke-width="3"/><path d="M302 433q16 10 32 0" fill="none" stroke="#d9c193" stroke-width="3" opacity="0.6"/>
  <ellipse cx="521" cy="435" rx="34" ry="26" fill="#f7eccd" stroke="#d9c193" stroke-width="3"/><path d="M505 439q16 10 32 0" fill="none" stroke="#d9c193" stroke-width="3" opacity="0.6"/>
  <ellipse cx="313" cy="440" rx="34" ry="26" fill="#f7eccd" stroke="#d9c193" stroke-width="3"/><path d="M297 444q16 10 32 0" fill="none" stroke="#d9c193" stroke-width="3" opacity="0.6"/>
  <ellipse cx="511" cy="443" rx="34" ry="26" fill="#f7eccd" stroke="#d9c193" stroke-width="3"/><path d="M495 447q16 10 32 0" fill="none" stroke="#d9c193" stroke-width="3" opacity="0.6"/>
  <ellipse cx="461" cy="452" rx="34" ry="26" fill="#f7eccd" stroke="#d9c193" stroke-width="3"/><path d="M445 456q16 10 32 0" fill="none" stroke="#d9c193" stroke-width="3" opacity="0.6"/>
  <ellipse cx="431" cy="458" rx="34" ry="26" fill="#f7eccd" stroke="#d9c193" stroke-width="3"/><path d="M415 462q16 10 32 0" fill="none" stroke="#d9c193" stroke-width="3" opacity="0.6"/>
  <ellipse cx="395" cy="459" rx="34" ry="26" fill="#f7eccd" stroke="#d9c193" stroke-width="3"/><path d="M379 463q16 10 32 0" fill="none" stroke="#d9c193" stroke-width="3" opacity="0.6"/>
  <ellipse cx="375" cy="465" rx="34" ry="26" fill="#f7eccd" stroke="#d9c193" stroke-width="3"/><path d="M359 469q16 10 32 0" fill="none" stroke="#d9c193" stroke-width="3" opacity="0.6"/>
  <ellipse cx="372" cy="471" rx="34" ry="26" fill="#f7eccd" stroke="#d9c193" stroke-width="3"/><path d="M356 475q16 10 32 0" fill="none" stroke="#d9c193" stroke-width="3" opacity="0.6"/>
  <ellipse cx="498" cy="407" rx="58" ry="42" fill="#c0342c"/>
  <ellipse cx="506" cy="413" rx="29" ry="20" fill="#8f2018" opacity="0.7"/>
  <ellipse cx="388" cy="457" rx="52" ry="37" fill="#c0342c"/>
  <ellipse cx="396" cy="463" rx="26" ry="18" fill="#8f2018" opacity="0.7"/>
  <ellipse cx="514" cy="435" rx="41" ry="29" fill="#c0342c"/>
  <ellipse cx="522" cy="441" rx="20" ry="14" fill="#8f2018" opacity="0.7"/>
  <ellipse cx="318" cy="395" rx="68" ry="49" fill="#c0342c"/>
  <ellipse cx="326" cy="401" rx="34" ry="23" fill="#8f2018" opacity="0.7"/>
  <ellipse cx="474" cy="399" rx="47" ry="34" fill="#c0342c"/>
  <ellipse cx="482" cy="405" rx="24" ry="16" fill="#8f2018" opacity="0.7"/>
  <ellipse cx="400" cy="414" rx="48" ry="35" fill="#c0342c"/>
  <ellipse cx="408" cy="420" rx="24" ry="16" fill="#8f2018" opacity="0.7"/>
  <ellipse cx="438" cy="359" rx="75" ry="54" fill="#c0342c"/>
  <ellipse cx="446" cy="365" rx="37" ry="25" fill="#8f2018" opacity="0.7"/>
  <ellipse cx="402" cy="346" rx="44" ry="31" fill="#c0342c"/>
  <ellipse cx="410" cy="352" rx="22" ry="15" fill="#8f2018" opacity="0.7"/>
  <ellipse cx="414" cy="360" rx="55" ry="40" fill="#c0342c"/>
  <ellipse cx="422" cy="366" rx="28" ry="19" fill="#8f2018" opacity="0.7"/>
  <ellipse cx="410" cy="426" rx="49" ry="35" fill="#c0342c"/>
  <ellipse cx="418" cy="432" rx="25" ry="17" fill="#8f2018" opacity="0.7"/>
  <circle cx="411" cy="357" r="3.7" fill="#fffaf2" opacity="0.95"/>
  <circle cx="330" cy="449" r="4.9" fill="#fffaf2" opacity="0.95"/>
  <circle cx="364" cy="401" r="5.2" fill="#fffaf2" opacity="0.95"/>
  <circle cx="405" cy="393" r="6.9" fill="#fffaf2" opacity="0.95"/>
  <circle cx="486" cy="350" r="4.3" fill="#fffaf2" opacity="0.95"/>
  <circle cx="294" cy="377" r="3.1" fill="#fffaf2" opacity="0.95"/>
  <circle cx="483" cy="418" r="4.7" fill="#fffaf2" opacity="0.95"/>
  <circle cx="534" cy="370" r="5.3" fill="#fffaf2" opacity="0.95"/>
  <circle cx="546" cy="415" r="5.5" fill="#fffaf2" opacity="0.95"/>
  <circle cx="355" cy="504" r="6.0" fill="#fffaf2" opacity="0.95"/>
  <circle cx="333" cy="375" r="5.4" fill="#fffaf2" opacity="0.95"/>
  <circle cx="406" cy="409" r="3.8" fill="#fffaf2" opacity="0.95"/>
  <circle cx="426" cy="445" r="6.1" fill="#fffaf2" opacity="0.95"/>
  <circle cx="383" cy="393" r="5.0" fill="#fffaf2" opacity="0.95"/>
  <circle cx="412" cy="399" r="3.0" fill="#fffaf2" opacity="0.95"/>
  <circle cx="320" cy="502" r="6.3" fill="#fffaf2" opacity="0.95"/>
  <circle cx="389" cy="454" r="3.8" fill="#fffaf2" opacity="0.95"/>
  <circle cx="321" cy="408" r="5.8" fill="#fffaf2" opacity="0.95"/>
  <circle cx="239" cy="398" r="6.6" fill="#fffaf2" opacity="0.95"/>
  <circle cx="438" cy="503" r="3.4" fill="#fffaf2" opacity="0.95"/>
  <g transform="translate(430 330) rotate(-12) scale(0.8)">
    <path d="M0 0c-34-10-58-38-58-72 34 4 62 30 68 66Z" fill="#4f7a3a"/>
    <path d="M6 4c26-26 62-32 92-18-18 30-56 42-88 30Z" fill="#5f8f45"/>
    <path d="M-40-56 4 2l72-14" fill="none" stroke="#3c6029" stroke-width="3"/>
  </g><g transform="translate(330 400) rotate(160) scale(0.6)">
    <path d="M0 0c-34-10-58-38-58-72 34 4 62 30 68 66Z" fill="#4f7a3a"/>
    <path d="M6 4c26-26 62-32 92-18-18 30-56 42-88 30Z" fill="#5f8f45"/>
    <path d="M-40-56 4 2l72-14" fill="none" stroke="#3c6029" stroke-width="3"/>
  </g>
</svg>
