<svg xmlns="http://www.w3.org/2000/svg" viewBox="0 0 800 800" preserveAspectRatio="xMidYMid slice" role="img" aria-label="Risotto allo zafferano">
  <defs>
    <radialGradient id="luce" cx="34%" cy="24%" r="78%">
      <stop offset="0%" stop-color="#fffaf2" stop-opacity="0.95"/>
      <stop offset="100%" stop-color="#fffaf2" stop-opacity="0"/>
    </radialGradient>
    <radialGradient id="ombra" cx="50%" cy="50%" r="50%">
      <stop offset="60%" stop-color="#6b4526" stop-opacity="0.3"/>
      <stop offset="100%" stop-color="#6b4526" stop-opacity="0"/>
    </radialGradient>
  </defs>
  <rect width="800" height="800" fill="#efe3cd"/>
  <rect width="800" height="800" fill="url(#luce)"/>
  <ellipse cx="400" cy="456" rx="330" ry="255" fill="url(#ombra)"/>
  <ellipse cx="400" cy="430" rx="320" ry="248" fill="#fffdf8"/>
  <ellipse cx="400" cy="430" rx="320" ry="248" fill="none" stroke="#e0d6c4" stroke-width="3"/>
  <ellipse cx="400" cy="434" rx="243" ry="186" fill="#f7f2e8"/>
  <ellipse cx="400" cy="434" rx="243" ry="186" fill="none" stroke="#e6dccb" stroke-width="2"/>
  <ellipse cx="400" cy="412" rx="196" ry="140" fill="#f2c23c"/>
  <ellipse cx="279" cy="447" rx="13" ry="8" transform="rotate(114 400 400)" fill="#eab52c"/>
  <ellipse cx="524" cy="516" rx="13" ry="8" transform="rotate(85 400 400)" fill="#fae08a"/>
  <ellipse cx="286" cy="409" rx="13" ry="8" transform="rotate(142 400 400)" fill="#f7d45f"/>
  <ellipse cx="354" cy="423" rx="13" ry="8" transform="rotate(12 400 400)" fill="#f7d45f"/>
  <ellipse cx="552" cy="448" rx="13" ry="8" transform="rotate(79 400 400)" fill="#fae08a"/>
  <ellipse cx="497" cy="382" rx="13" ry="8" transform="rotate(80 400 400)" fill="#eab52c"/>
  <ellipse cx="414" cy="448" rx="13" ry="8" transform="rotate(117 400 400)" fill="#eab52c"/>
  <ellipse cx="228" cy="458" rx="13" ry="8" transform="rotate(16 400 400)" fill="#f7d45f"/>
  <ellipse cx="383" cy="415" rx="13" ry="8" transform="rotate(62 400 400)" fill="#eab52c"/>
  <ellipse cx="274" cy="441" rx="13" ry="8" transform="rotate(85 400 400)" fill="#f7d45f"/>
  <ellipse cx="247" cy="333" rx="13" ry="8" transform="rotate(121 400 400)" fill="#fae08a"/>
  <ellipse cx="492" cy="463" rx="13" ry="8" transform="rotate(105 400 400)" fill="#fae08a"/>
  <ellipse cx="246" cy="417" rx="13" ry="8" transform="rotate(101 400 400)" fill="#eab52c"/>
  <ellipse cx="292" cy="500" rx="13" ry="8" transform="rotate(160 400 400)" fill="#eab52c"/>
  <ellipse cx="325" cy="508" rx="13" ry="8" transform="rotate(90 400 400)" fill="#eab52c"/>
  <ellipse cx="578" cy="377" rx="13" ry="8" transform="rotate(5 400 400)" fill="#f7d45f"/>
  <ellipse cx="277" cy="453" rx="13" ry="8" transform="rotate(177 400 400)" fill="#f7d45f"/>
  <ellipse cx="397" cy="415" rx="13" ry="8" transform="rotate(135 400 400)" fill="#f7d45f"/>
  <ellipse cx="426" cy="361" rx="13" ry="8" transform="rotate(176 400 400)" fill="#f7d45f"/>
  <ellipse cx="285" cy="327" rx="13" ry="8" transform="rotate(63 400 400)" fill="#eab52c"/>
  <ellipse cx="345" cy="425" rx="13" ry="8" transform="rotate(55 400 400)" fill="#f7d45f"/>
  <ellipse cx="281" cy="500" rx="13" ry="8" transform="rotate(31 400 400)" fill="#eab52c"/>
  <ellipse cx="355" cy="445" rx="13" ry="8" transform="rotate(122 400 400)" fill="#fae08a"/>
  <ellipse cx="565" cy="382" rx="13" ry="8" transform="rotate(178 400 400)" fill="#fae08a"/>
  <ellipse cx="433" cy="491" rx="13" ry="8" transform="rotate(88 400 400)" fill="#eab52c"/>
  <ellipse cx="460" cy="503" rx="13" ry="8" transform="rotate(44 400 400)" fill="#fae08a"/>
  <ellipse cx="245" cy="473" rx="13" ry="8" transform="rotate(139 400 400)" fill="#eab52c"/>
  <ellipse cx="241" cy="354" rx="13" ry="8" transform="rotate(154 400 400)" fill="#fae08a"/>
  <ellipse cx="324" cy="384" rx="13" ry="8" transform="rotate(31 400 400)" fill="#f7d45f"/>
  <ellipse cx="533" cy="436" rx="13" ry="8" transform="rotate(26 400 400)" fill="#f7d45f"/>
  <ellipse cx="489" cy="398" rx="13" ry="8" transform="rotate(45 400 400)" fill="#fae08a"/>
  <ellipse cx="409" cy="456" rx="13" ry="8" transform="rotate(5 400 400)" fill="#f7d45f"/>
  <ellipse cx="544" cy="372" rx="13" ry="8" transform="rotate(28 400 400)" fill="#eab52c"/>
  <ellipse cx="436" cy="386" rx="13" ry="8" transform="rotate(105 400 400)" fill="#eab52c"/>
  <ellipse cx="331" cy="411" rx="13" ry="8" transform="rotate(50 400 400)" fill="#fae08a"/>
  <ellipse cx="224" cy="446" rx="13" ry="8" transform="rotate(172 400 400)" fill="#f7d45f"/>
  <ellipse cx="315" cy="363" rx="13" ry="8" transform="rotate(45 400 400)" fill="#fae08a"/>
  <ellipse cx="372" cy="445" rx="13" ry="8" transform="rotate(135 400 400)" fill="#f7d45f"/>
  <ellipse cx="268" cy="310" rx="13" ry="8" transform="rotate(17 400 400)" fill="#f7d45f"/>
  <ellipse cx="451" cy="469" rx="13" ry="8" transform="rotate(13 400 400)" fill="#f7d45f"/>
  <ellipse cx="456" cy="317" rx="13" ry="8" transform="rotate(97 400 400)" fill="#eab52c"/>
  <ellipse cx="363" cy="492" rx="13" ry="8" transform="rotate(112 400 400)" fill="#f7d45f"/>
  <ellipse cx="286" cy="375" rx="13" ry="8" transform="rotate(128 400 400)" fill="#fae08a"/>
  <ellipse cx="493" cy="427" rx="13" ry="8" transform="rotate(91 400 400)" fill="#fae08a"/>
  <ellipse cx="499" cy="470" rx="13" ry="8" transform="rotate(1 400 400)" fill="#eab52c"/>
  <ellipse cx="531" cy="380" rx="13" ry="8" transform="rotate(102 400 400)" fill="#fae08a"/>
  <ellipse cx="304" cy="510" rx="13" ry="8" transform="rotate(109 400 400)" fill="#fae08a"/>
  <ellipse cx="235" cy="377" rx="13" ry="8" transform="rotate(56 400 400)" fill="#eab52c"/>
  <ellipse cx="514" cy="473" rx="13" ry="8" transform="rotate(88 400 400)" fill="#fae08a"/>
  <ellipse cx="255" cy="426" rx="13" ry="8" transform="rotate(91 400 400)" fill="#fae08a"/>
  <ellipse cx="337" cy="407" rx="13" ry="8" transform="rotate(52 400 400)" fill="#fae08a"/>
  <ellipse cx="409" cy="417" rx="13" ry="8" transform="rotate(11 400 400)" fill="#eab52c"/>
  <ellipse cx="572" cy="370" rx="13" ry="8" transform="rotate(57 400 400)" fill="#eab52c"/>
  <ellipse cx="259" cy="306" rx="13" ry="8" transform="rotate(13 400 400)" fill="#eab52c"/>
  <ellipse cx="402" cy="506" rx="13" ry="8" transform="rotate(122 400 400)" fill="#fae08a"/>
  <ellipse cx="379" cy="407" rx="13" ry="8" transform="rotate(70 400 400)" fill="#eab52c"/>
  <ellipse cx="245" cy="294" rx="13" ry="8" transform="rotate(119 400 400)" fill="#f7d45f"/>
  <ellipse cx="309" cy="450" rx="13" ry="8" transform="rotate(147 400 400)" fill="#fae08a"/>
  <ellipse cx="374" cy="471" rx="13" ry="8" transform="rotate(72 400 400)" fill="#eab52c"/>
  <ellipse cx="395" cy="433" rx="13" ry="8" transform="rotate(173 400 400)" fill="#f7d45f"/>
  <ellipse cx="233" cy="328" rx="13" ry="8" transform="rotate(67 400 400)" fill="#fae08a"/>
  <ellipse cx="541" cy="467" rx="13" ry="8" transform="rotate(113 400 400)" fill="#fae08a"/>
  <ellipse cx="460" cy="486" rx="13" ry="8" transform="rotate(126 400 400)" fill="#fae08a"/>
  <ellipse cx="314" cy="399" rx="13" ry="8" transform="rotate(90 400 400)" fill="#eab52c"/>
  <ellipse cx="441" cy="478" rx="13" ry="8" transform="rotate(173 400 400)" fill="#f7d45f"/>
  <ellipse cx="278" cy="334" rx="13" ry="8" transform="rotate(158 400 400)" fill="#fae08a"/>
  <ellipse cx="272" cy="415" rx="13" ry="8" transform="rotate(14 400 400)" fill="#eab52c"/>
  <ellipse cx="443" cy="374" rx="13" ry="8" transform="rotate(134 400 400)" fill="#f7d45f"/>
  <ellipse cx="577" cy="326" rx="13" ry="8" transform="rotate(78 400 400)" fill="#fae08a"/>
  <ellipse cx="341" cy="436" rx="13" ry="8" transform="rotate(123 400 400)" fill="#eab52c"/>
  <ellipse cx="250" cy="295" rx="13" ry="8" transform="rotate(93 400 400)" fill="#f7d45f"/>
  <ellipse cx="544" cy="405" rx="13" ry="8" transform="rotate(43 400 400)" fill="#fae08a"/>
  <ellipse cx="320" cy="375" rx="13" ry="8" transform="rotate(169 400 400)" fill="#eab52c"/>
  <ellipse cx="365" cy="394" rx="13" ry="8" transform="rotate(120 400 400)" fill="#fae08a"/>
  <ellipse cx="283" cy="376" rx="13" ry="8" transform="rotate(49 400 400)" fill="#f7d45f"/>
  <ellipse cx="571" cy="337" rx="13" ry="8" transform="rotate(63 400 400)" fill="#fae08a"/>
  <ellipse cx="557" cy="450" rx="13" ry="8" transform="rotate(3 400 400)" fill="#fae08a"/>
  <ellipse cx="429" cy="380" rx="13" ry="8" transform="rotate(79 400 400)" fill="#eab52c"/>
  <ellipse cx="306" cy="290" rx="13" ry="8" transform="rotate(98 400 400)" fill="#f7d45f"/>
  <ellipse cx="570" cy="332" rx="13" ry="8" transform="rotate(67 400 400)" fill="#f7d45f"/>
  <ellipse cx="353" cy="319" rx="13" ry="8" transform="rotate(143 400 400)" fill="#eab52c"/>
  <ellipse cx="411" cy="299" rx="13" ry="8" transform="rotate(34 400 400)" fill="#eab52c"/>
  <ellipse cx="538" cy="344" rx="13" ry="8" transform="rotate(103 400 400)" fill="#fae08a"/>
  <ellipse cx="553" cy="491" rx="13" ry="8" transform="rotate(3 400 400)" fill="#fae08a"/>
  <ellipse cx="246" cy="388" rx="13" ry="8" transform="rotate(150 400 400)" fill="#fae08a"/>
  <ellipse cx="288" cy="302" rx="13" ry="8" transform="rotate(147 400 400)" fill="#fae08a"/>
  <ellipse cx="413" cy="401" rx="13" ry="8" transform="rotate(122 400 400)" fill="#fae08a"/>
  <ellipse cx="342" cy="350" rx="13" ry="8" transform="rotate(64 400 400)" fill="#eab52c"/>
  <ellipse cx="450" cy="290" rx="13" ry="8" transform="rotate(145 400 400)" fill="#fae08a"/>
  <ellipse cx="244" cy="406" rx="13" ry="8" transform="rotate(122 400 400)" fill="#f7d45f"/>
  <ellipse cx="350" cy="369" rx="13" ry="8" transform="rotate(29 400 400)" fill="#fae08a"/>
  <ellipse cx="398" cy="445" rx="13" ry="8" transform="rotate(118 400 400)" fill="#f7d45f"/>
  <ellipse cx="232" cy="342" rx="13" ry="8" transform="rotate(65 400 400)" fill="#eab52c"/>
  <ellipse cx="367" cy="447" rx="13" ry="8" transform="rotate(131 400 400)" fill="#fae08a"/>
  <ellipse cx="372" cy="363" rx="13" ry="8" transform="rotate(39 400 400)" fill="#fae08a"/>
  <ellipse cx="235" cy="369" rx="13" ry="8" transform="rotate(96 400 400)" fill="#fae08a"/>
  <ellipse cx="451" cy="293" rx="13" ry="8" transform="rotate(66 400 400)" fill="#eab52c"/>
  <ellipse cx="278" cy="484" rx="13" ry="8" transform="rotate(145 400 400)" fill="#eab52c"/>
  <ellipse cx="465" cy="338" rx="13" ry="8" transform="rotate(140 400 400)" fill="#fae08a"/>
  <ellipse cx="412" cy="497" rx="13" ry="8" transform="rotate(175 400 400)" fill="#eab52c"/>
  <ellipse cx="296" cy="395" rx="13" ry="8" transform="rotate(125 400 400)" fill="#eab52c"/>
  <ellipse cx="224" cy="369" rx="13" ry="8" transform="rotate(110 400 400)" fill="#fae08a"/>
  <ellipse cx="229" cy="375" rx="13" ry="8" transform="rotate(135 400 400)" fill="#f7d45f"/>
  <ellipse cx="555" cy="411" rx="13" ry="8" transform="rotate(159 400 400)" fill="#f7d45f"/>
  <ellipse cx="301" cy="406" rx="13" ry="8" transform="rotate(51 400 400)" fill="#eab52c"/>
  <ellipse cx="486" cy="491" rx="13" ry="8" transform="rotate(65 400 400)" fill="#f7d45f"/>
  <ellipse cx="306" cy="426" rx="13" ry="8" transform="rotate(63 400 400)" fill="#fae08a"/>
  <ellipse cx="513" cy="371" rx="13" ry="8" transform="rotate(24 400 400)" fill="#f7d45f"/>
  <ellipse cx="548" cy="508" rx="13" ry="8" transform="rotate(136 400 400)" fill="#fae08a"/>
  <ellipse cx="486" cy="459" rx="13" ry="8" transform="rotate(38 400 400)" fill="#fae08a"/>
  <ellipse cx="408" cy="494" rx="13" ry="8" transform="rotate(93 400 400)" fill="#f7d45f"/>
  <ellipse cx="278" cy="440" rx="13" ry="8" transform="rotate(110 400 400)" fill="#eab52c"/>
  <ellipse cx="498" cy="461" rx="13" ry="8" transform="rotate(117 400 400)" fill="#eab52c"/>
  <ellipse cx="286" cy="478" rx="13" ry="8" transform="rotate(40 400 400)" fill="#eab52c"/>
  <ellipse cx="316" cy="412" rx="13" ry="8" transform="rotate(83 400 400)" fill="#f7d45f"/>
  <ellipse cx="504" cy="365" rx="13" ry="8" transform="rotate(79 400 400)" fill="#eab52c"/>
  <ellipse cx="485" cy="456" rx="13" ry="8" transform="rotate(179 400 400)" fill="#eab52c"/>
  <ellipse cx="271" cy="296" rx="13" ry="8" transform="rotate(140 400 400)" fill="#fae08a"/>
  <ellipse cx="327" cy="479" rx="13" ry="8" transform="rotate(82 400 400)" fill="#eab52c"/>
  <ellipse cx="302" cy="457" rx="13" ry="8" transform="rotate(146 400 400)" fill="#eab52c"/>
  <circle cx="459" cy="309" r="6.7" fill="#fffaf2" opacity="0.95"/>
  <circle cx="275" cy="371" r="4.4" fill="#fffaf2" opacity="0.95"/>
  <circle cx="421" cy="394" r="5.9" fill="#fffaf2" opacity="0.95"/>
  <circle cx="254" cy="355" r="3.4" fill="#fffaf2" opacity="0.95"/>
  <circle cx="453" cy="451" r="4.8" fill="#fffaf2" opacity="0.95"/>
  <circle cx="272" cy="483" r="5.4" fill="#fffaf2" opacity="0.95"/>
  <circle cx="343" cy="474" r="6.0" fill="#fffaf2" opacity="0.95"/>
  <circle cx="315" cy="330" r="6.0" fill="#fffaf2" opacity="0.95"/>
  <circle cx="548" cy="325" r="5.5" fill="#fffaf2" opacity="0.95"/>
  <circle cx="450" cy="407" r="3.5" fill="#fffaf2" opacity="0.95"/>
  <circle cx="492" cy="403" r="3.1" fill="#fffaf2" opacity="0.95"/>
  <circle cx="536" cy="488" r="5.1" fill="#fffaf2" opacity="0.95"/>
  <circle cx="233" cy="473" r="4.1" fill="#fffaf2" opacity="0.95"/>
  <circle cx="319" cy="469" r="3.2" fill="#fffaf2" opacity="0.95"/>
  <circle cx="487" cy="424" r="5.0" fill="#fffaf2" opacity="0.95"/>
  <circle cx="569" cy="350" r="5.8" fill="#fffaf2" opacity="0.95"/>
  <circle cx="396" cy="412" r="5.2" fill="#fffaf2" opacity="0.95"/>
  <circle cx="377" cy="308" r="6.8" fill="#fffaf2" opacity="0.95"/>
  <circle cx="278" cy="384" r="4.8" fill="#fffaf2" opacity="0.95"/>
  <circle cx="450" cy="448" r="5.3" fill="#fffaf2" opacity="0.95"/>
  <circle cx="379" cy="350" r="6.4" fill="#fffaf2" opacity="0.95"/>
  <circle cx="535" cy="473" r="6.1" fill="#fffaf2" opacity="0.95"/>
  <circle cx="537" cy="454" r="4.4" fill="#fffaf2" opacity="0.95"/>
  <circle cx="282" cy="307" r="4.1" fill="#fffaf2" opacity="0.95"/>
  <circle cx="465" cy="364" r="6.9" fill="#fffaf2" opacity="0.95"/>
  <circle cx="385" cy="344" r="3.0" fill="#fffaf2" opacity="0.95"/>
  <g transform="translate(452 320) rotate(-14) scale(0.7)">
    <path d="M0 0c-34-10-58-38-58-72 34 4 62 30 68 66Z" fill="#4f7a3a"/>
    <path d="M6 4c26-26 62-32 92-18-18 30-56 42-88 30Z" fill="#5f8f45"/>
    <path d="M-40-56 4 2l72-14" fill="none" stroke="#3c6029" stroke-width="3"/>
  </g>
</svg>
