<svg xmlns="http://www.w3.org/2000/svg" viewBox="0 0 900 1100" preserveAspectRatio="xMidYMid slice" role="img" aria-label="Dettaglio della sala">
  <defs>
    <linearGradient id="s1" x1="0" y1="0" x2="1" y2="1">
      <stop offset="0%" stop-color="#eadfc8"/><stop offset="100%" stop-color="#c9b189"/>
    </linearGradient>
  </defs>
  <rect width="900" height="1100" fill="url(#s1)"/>
  <g fill="none" stroke="#5a1622" stroke-opacity="0.25" stroke-width="3">
    <path d="M150 1100V420a300 300 0 0 1 600 0v680"/>
    <path d="M230 1100V450a220 220 0 0 1 440 0v650"/>
  </g>
  <circle cx="450" cy="330" r="120" fill="#a32a2a" opacity="0.18"/>
  <g stroke="#5a1622" stroke-opacity="0.5" stroke-width="4" stroke-linecap="round">
    <path d="M450 120v90"/>
  </g>
  <ellipse cx="450" cy="252" rx="70" ry="24" fill="#5a1622" opacity="0.55"/>
  <rect x="180" y="820" width="540" height="16" rx="8" fill="#5a1622" opacity="0.35"/>
  <g fill="#fffaf2" opacity="0.85">
    <circle cx="330" cy="790" r="46"/><circle cx="570" cy="790" r="46"/>
  </g>
  <g fill="#a32a2a" opacity="0.75">
    <path d="M430 700c0 30 16 50 20 58 4-8 20-28 20-58 0-27-16-46-20-54-4 8-20 27-20 54z"/>
  </g>
</svg>
